<?xml version="1.0" standalone="no"?>
<!DOCTYPE svg PUBLIC "-//W3C//DTD SVG 20010904//EN"
 "http://www.w3.org/TR/2001/REC-SVG-20010904/DTD/svg10.dtd">
<svg version="1.0" xmlns="http://www.w3.org/2000/svg"
 width="512.000000pt" height="512.000000pt" viewBox="0 0 512.000000 512.000000"
 preserveAspectRatio="xMidYMid meet">
<metadata>
Created by potrace 1.15, written by Peter Selinger 2001-2017
</metadata>
<g transform="translate(0.000000,512.000000) scale(0.100000,-0.100000)"
fill="#fff" stroke="none">
<path d="M3303 4223 c-133 -155 -1452 -1731 -1467 -1755 -23 -36 -17 -70 15
-85 22 -11 74 -8 298 14 l272 27 27 -21 c20 -15 27 -29 26 -51 -1 -18 -153
-325 -374 -756 -205 -400 -370 -729 -367 -732 4 -5 1552 1791 1680 1949 32 40
47 68 47 88 0 55 -23 55 -340 5 -157 -26 -299 -46 -316 -46 -36 0 -64 26 -64
60 0 13 140 322 311 687 172 365 309 666 307 668 -3 3 -27 -21 -55 -52z"/>
</g>
</svg>
